<svg width="100" height="108" viewBox="0 0 100 108" fill="none" xmlns="http://www.w3.org/2000/svg">
<path d="M50.75 2.70096L50 2.26795L49.25 2.70096L5.94873 27.701L5.19873 28.134V29V79V79.866L5.94873 80.299L49.25 105.299L50 105.732L50.75 105.299L94.0513 80.299L94.8013 79.866V79V29V28.134L94.0513 27.701L50.75 2.70096Z" stroke="#00ADB5" stroke-width="3"/>
<path d="M48.952 32.328C52.6213 32.328 55.928 32.9893 58.872 34.312C61.8587 35.592 64.248 37.32 66.04 39.496C69.7093 43.8907 71.544 48.9467 71.544 54.664C71.544 59.2293 70.3493 63.3893 67.96 67.144C65.3573 71.2827 61.752 74.1413 57.144 75.72C54.6267 76.5733 51.896 77 48.952 77H33.208V32.328H48.952ZM48.248 71.56C53.5387 71.56 57.784 70.0027 60.984 66.888C64.184 63.7733 65.784 59.6987 65.784 54.664C65.784 49.6293 64.184 45.5547 60.984 42.44C57.784 39.3253 53.5387 37.768 48.248 37.768H39.032V71.56H48.248Z" fill="#00ADB5"/>
</svg>
